<svg width="2792" height="2919" viewBox="0 0 2792 2919" fill="none" xmlns="http://www.w3.org/2000/svg">
<path d="M2268.86 1575.24H2228.93V1165.68L2023.58 812.02L1844.46 708.203L1667.63 1025.36V1041.33H1778.3L1806.82 1059.58L1812.52 1047.03L1839.9 1059.58L1830.77 1070.99L2078.34 1190.78L2087.46 1174.81L2106.86 1187.36L1912.92 1547.86L1813.66 1504.51L1826.21 1481.7L1805.68 1471.43L1813.66 1455.46L1709.85 1402.98L1698.44 1413.24L1680.18 1399.55L1507.92 1402.98L1390.41 1474.85C1369.87 1512.5 1327.21 1592.59 1320.82 1611.75C1314.43 1630.92 1323.48 1634.19 1328.8 1633.43V1657.39H1315.11V1769.19H1328.8V1792.01H1359.61V1901.53L942.056 1925.48V1901.53H960.31L955.746 1617.46H936.352V1591.22H952.324V1551.29L1001.38 1460.02L596.38 1469.15L599.803 1675.64L813.141 2024.74L841.662 2040.71L1193.04 2230.09V2265.46L1149.69 2384.1L1108.62 2362.43C1093.82 2387.68 1072.43 2424.03 1052.13 2458.26C1042.27 2474.88 1032.67 2490.99 1024.2 2505.1C1008.87 2530.62 997.249 2549.56 994.535 2552.95C1009.14 2561.16 1008.23 2570.06 1005.94 2573.48C1002.9 2578.43 995.676 2589.91 991.113 2596.3C984.724 2605.43 973.239 2602.39 968.296 2599.72L940.491 2648.78L789.183 2915.74L461.761 2749.17L612.715 2477.65L637.451 2433.16L629.465 2413.77L650 2381.82L668.254 2378.4C675.39 2365.45 684.702 2348.62 694.792 2330.48C708.162 2306.45 722.896 2280.12 735.744 2257.47C749.366 2233.46 760.866 2213.59 766.366 2204.99C731.949 2192.56 706.461 2170.2 688.789 2147.85C672.719 2127.52 663.111 2107.19 659.127 2094.33C603.986 2127.41 490.282 2195.86 476.592 2204.99C482.068 2214.12 478.873 2222.48 476.592 2225.53C473.169 2228.19 463.13 2235.34 450.352 2242.64C437.575 2249.94 428.296 2239.6 425.254 2233.51L381.901 2260.11L289.493 2316.79L100.113 2008.77C123.062 1995 161.275 1972 191.38 1953.73C211.16 1941.72 227.44 1931.75 233.592 1927.77C226.29 1914.99 235.113 1904.95 240.437 1901.53C246.901 1897.72 261.2 1889.21 266.676 1885.55C278.541 1878.25 287.592 1890.12 290.634 1896.96L332.845 1872L396.732 1834.22L424.821 1882.13L435.521 1900.39L421.831 1910.65L464.042 1974.54L551.887 1920.92C543.815 1907.58 533.026 1889.79 521.426 1870.72C510.704 1853.1 499.29 1834.39 488.688 1817.1C471.853 1789.65 457.066 1765.77 450.352 1755.5C445.6 1748.23 441.94 1741.63 439.148 1735.83L438.205 1736.1C432.637 1724.03 430.958 1715.65 430.958 1712.15L430.378 1693.89L428.676 1640.27H275.803H222.183C221.27 1654.88 211.155 1658.53 206.211 1658.53H185.676C168.85 1658.53 165.701 1648.5 166.224 1643.04C166.209 1642.88 166.197 1642.72 166.189 1642.56L114.944 1643.98L2 1647.12V1644.84V1543.02V1482.84V1480.55V1441.77V1439.48V1402.41V1363.05V1277.48V1275.2C45.3521 1274.06 138.217 1271.78 162.859 1271.78C162.859 1260.83 171.225 1255.05 175.408 1253.53H206.211C219.01 1253.53 221.505 1264.16 221.154 1270.52C221.177 1270.95 221.187 1271.37 221.185 1271.78L275.803 1270.29L346.535 1268.36V1270.64V1329.96V1332.24V1355.06V1357.34H330.563V1431.5L434.345 1429.22C434.191 1419.39 434.001 1407.3 433.788 1393.85L433.564 1379.77L433.389 1368.75C433.074 1349.02 432.733 1327.78 432.397 1307.15C431.86 1274.2 431.337 1242.8 430.958 1221.58C430.938 1220.47 430.934 1219.38 430.944 1218.29C430.917 1215.51 430.988 1212.81 431.146 1210.17C432.273 1191.48 437.86 1176.35 445.088 1164.54C455.356 1147.77 468.933 1137.72 477.732 1133.74L521.38 1116.95L500.549 1068.71C495.986 1069.85 482.296 1073.96 464.042 1081.26C436.662 1091.3 418.408 1087.72 412.704 1084.68C373.155 1063.01 292.003 1018.74 283.789 1015.09C276.487 1025.13 267.056 1026.12 263.254 1025.36C258.31 1023.08 246.141 1016.92 237.014 1010.53C232.621 1007.45 231.4 1003.19 231.697 999.056C231.366 994.716 233.037 990.245 234.804 987.136L190.5 963.363L95.5493 912.414L96.5372 910.662L95.5493 910.132L178.555 762.963L227.457 676.259L281.507 580.428C305.809 593.62 346.76 615.94 379.62 634.066C400.751 645.722 418.536 655.643 426.394 660.287C432.783 646.597 442.746 646.977 446.93 648.879C453.394 652.301 467.921 660.515 474.31 665.991C477.216 668.482 478.029 672.169 477.801 675.914C478.084 680.198 476.658 684.877 475.194 688.146L519.944 712.386L583.831 746.991L554.169 797.252L542.761 816.583L525.648 808.597L482.296 883.893L580.408 934.09C587.966 920.638 599.933 899.387 613.846 874.766C623.693 857.34 634.514 838.224 645.437 818.99C657.908 797.029 670.51 774.912 681.944 754.977C685.884 748.108 690.214 742.051 694.84 736.724C703.417 726.847 713.011 719.48 723.014 714.1C756.354 696.168 794.251 700.298 814.282 707.062L816.563 654.583L742.408 635.189C718.07 592.217 668.253 504.676 663.69 498.287C653.651 505.589 645.056 500.569 642.014 497.146C639.732 494.104 633.344 484.825 626.042 472.048C618.741 459.27 629.085 448.47 635.169 444.667L613.086 405.52L559.873 311.189L704.761 226.501L790.324 176.488L883.873 121.808C896.756 145.288 917.086 182.141 933.772 211.935C947.625 236.67 958.967 256.539 961.451 259.851C970.577 255.287 975.901 257.189 977.423 258.71C981.986 265.174 992.254 279.929 996.817 287.231C1001.38 294.532 991.873 306.245 986.549 311.189L1010.87 353.4L1047.01 416.146L999.993 444.667L977.423 458.358L968.296 444.667L895.282 488.02L948.901 573.583C964.241 563.949 983.739 551.808 1004.8 538.84C1022.1 528.191 1040.45 516.985 1058.42 506.151C1091.07 486.472 1122.46 468.022 1143.99 456.38C1154.86 450.501 1163.21 446.358 1167.94 444.667C1175.98 441.797 1183.7 440.732 1190.76 440.798C1206.14 440.943 1218.37 446.462 1223.85 450.372L1247.8 386.484C1248.04 371.741 1248.34 352.179 1248.65 331.724C1249.31 288.104 1249.99 240.424 1250.08 226.766C1241.87 226.76 1236.01 218.398 1234.11 214.217C1233.87 210.884 1233.58 204.392 1233.61 197.316C1233.59 192.43 1233.71 187.114 1234.11 182.273C1235.03 171.321 1248.18 168.583 1254.65 168.583L1256.99 112.682L1261.49 5.44207L1422.35 3.92453L1624.28 2.01953C1624.26 2.76892 1624.24 3.52986 1624.21 4.30187L1624.28 4.30122C1622.85 52.0175 1620.06 146.578 1619.75 164.022C1630.68 164.943 1634.17 171.247 1634.55 174.287V176.569V200.527V202.808C1634.55 211.375 1631.21 217.139 1627 220.87C1622.69 224.692 1617.48 226.381 1614.01 226.766L1611.73 349.977H1529.59V347.696V334.005H1452.01L1448.67 434.398C1464.05 433.95 1487.53 433.362 1513.62 432.868C1532.7 432.507 1553.19 432.196 1572.94 432.027C1595.01 431.838 1616.16 431.826 1633.41 432.118C1648.19 432.369 1659.67 432.949 1668.77 433.823C1688.59 435.725 1697.19 439.016 1704.14 443.324C1708.55 446.056 1712.3 449.198 1717.83 452.653C1732.43 461.78 1740.65 496.005 1742.93 511.977C1750.15 508.555 1770.99 498.972 1796.55 488.02C1781.95 446.949 1780.58 426.034 1781.72 419.569C1788.41 408.106 1797.33 392.876 1806.82 376.737C1820.72 353.083 1835.83 327.475 1846.95 308.907C1853.67 297.694 1858.93 289.047 1861.58 284.949C1851.54 280.386 1850.55 270.879 1851.31 266.696C1853.97 261.372 1861.12 248.442 1868.42 239.315C1875.72 230.189 1886.68 232.47 1891.24 234.752L1975.66 96.7097L2107.85 176.52L2143.5 198.046L2277.99 276.963C2277.66 277.518 2277.34 278.081 2277 278.652L2277.99 279.245C2264.89 301.785 2243.82 337.92 2226.64 367.09C2214.41 387.859 2204.15 405.097 2200.14 411.382C2204.89 416.896 2206.11 425.103 2206.11 428.696C2206.08 428.743 2206.04 428.799 2206 428.863C2206.08 429.671 2206.11 430.387 2206.11 430.977C2205.35 432.118 2202.01 437.822 2194.7 451.512C2187.4 465.203 2173.41 468.625 2167.32 468.625L2104.58 574.724L2038.41 533.653L2039.23 531.88L2038.41 531.372L2044.42 518.341L1980.23 481.174L1928.89 571.301C1943.47 579.702 1961.2 590.062 1980.23 601.373C1995.68 610.559 2011.98 620.372 2028.14 630.272C2055.66 647.129 2082.77 664.24 2104.58 678.939C2118.63 688.413 2130.48 696.885 2138.8 703.642C2145.46 709.041 2149.86 713.344 2151.35 716.189C2161.39 735.355 2147.17 767.527 2138.8 781.217L2194.7 788.062L2208.39 709.343L2281.41 664.412L2341.87 627.203C2338.22 619.901 2343.39 611.231 2346.44 607.808C2352.14 604.386 2365.15 597.084 2371.54 595.259C2377.92 593.434 2385.61 600.583 2388.65 604.386L2434.87 576.816L2518.7 526.808L2577.08 630.119L2666.33 788.062L2692.11 833.696L2601.99 889.037L2562.06 913.555C2565.48 920.78 2567.3 937.512 2547.23 946.639C2527.15 955.766 2517.56 948.16 2515.28 943.217L2473.07 968.315L2445.12 986.569L2417.17 1004.82L2385.23 956.907L2376.1 943.217L2390.93 930.667L2382.94 918.118L2351 867.921L2266.58 918.118L2298 971.738L2329.42 1025.36L2371.54 1097.22L2390.93 1130.32V1132.6V1134.88V1189.64C2406.86 1189.33 2427.36 1188.94 2449.11 1188.54C2472.6 1188.1 2497.57 1187.65 2519.84 1187.26C2553.75 1186.66 2581.45 1186.22 2588.3 1186.22C2588.3 1175.26 2597.42 1171.01 2601.99 1170.24H2620.24C2626.2 1170.24 2630.73 1172.23 2634.03 1174.81C2637.81 1177.76 2639.96 1181.5 2640.77 1183.94L2652.18 1183.76L2789.08 1181.65V1336.81V1381.3H2686.41V1541.02H2635.07C2633.24 1552.88 2625.94 1558.13 2622.52 1559.27H2594C2590.35 1559.27 2583.35 1550.15 2580.31 1545.58H2534.68H2503.87H2467.37V1483.98V1462.3H2484.48V1449.75V1389.29H2385.23V1447.47V1449.75V1507.94V1510.22V1602.63L2268.86 1575.24Z" fill="#D9D9D9"/>
<path d="M2268.86 1575.24H2228.93V1163.4L2023.58 809.738L1844.46 705.921L1667.63 1023.08V1041.33H1778.3L1806.82 1059.58L1812.52 1047.03L1839.9 1059.58L1830.77 1070.99L2078.34 1190.78L2087.46 1174.81L2106.86 1187.36L1912.92 1547.86L1813.66 1504.51L1826.21 1481.7L1805.68 1471.43L1813.66 1455.46L1709.85 1402.98L1698.44 1413.24L1680.18 1399.55L1507.92 1402.98L1390.41 1474.85C1369.87 1512.5 1327.21 1592.59 1320.82 1611.75C1314.43 1630.92 1323.48 1634.19 1328.8 1633.43V1657.39H1315.11V1769.19H1328.8V1792.01H1359.61V1901.53L942.056 1925.48V1901.53H960.31L955.746 1617.46H936.352V1591.22H952.324V1551.29L1001.38 1460.02L596.38 1469.15L599.803 1675.64L813.141 2024.74L841.662 2040.71L1193.04 2230.09V2265.46M2268.86 1575.24L2385.23 1602.63V1507.94V1447.47M2268.86 1575.24V1510.22V1448.61M1796.55 488.02C1770.99 498.972 1750.15 508.555 1742.93 511.977C1740.65 496.005 1732.43 461.78 1717.83 452.653C1712.3 449.198 1708.55 446.056 1704.14 443.324M1796.55 488.02L1801.11 490.65L1893.52 543.921M1796.55 488.02C1781.95 446.949 1780.58 426.034 1781.72 419.569C1788.41 408.106 1797.33 392.876 1806.82 376.737C1820.72 353.083 1835.83 327.475 1846.95 308.907C1853.67 297.694 1858.93 289.047 1861.58 284.949C1851.54 280.386 1850.55 270.879 1851.31 266.696C1853.97 261.372 1861.12 248.442 1868.42 239.315C1875.72 230.189 1886.68 232.47 1891.24 234.752L1975.66 96.7097L2277.99 279.245C2264.89 301.785 2243.82 337.92 2226.64 367.09C2213.39 389.595 2202.45 407.954 2199.27 412.724C2204.74 418.2 2206.11 427.174 2206.11 430.977C2205.35 432.118 2202.01 437.822 2194.7 451.512C2187.4 465.203 2173.41 468.625 2167.32 468.625L2104.58 574.724L2038.41 533.653L2045.25 518.822L1980.23 481.174L1928.89 571.301C1943.47 579.702 1961.2 590.062 1980.23 601.373C1995.68 610.559 2011.98 620.372 2028.14 630.272C2055.66 647.129 2082.77 664.24 2104.58 678.939M1796.55 488.02C1770.99 498.972 1750.15 510.836 1742.93 514.259C1740.65 498.287 1732.43 464.062 1717.83 454.935C1713.28 452.088 1709.93 449.454 1706.42 447.086C1695.88 439.967 1683.92 435.256 1633.41 434.4C1579.56 433.487 1487.76 435.541 1448.59 436.681L1452.01 334.005H1529.59V349.977H1611.73L1614.01 226.766C1617.48 226.381 1622.69 224.692 1627 220.87M1448.59 434.4L1452.01 331.724H1529.59V347.696H1559.25M1448.59 434.4V556.47L1510.77 554.944L1572.94 553.419L1634.55 551.907L1668.77 433.823M1448.59 434.4C1463.98 433.952 1487.48 433.363 1513.62 432.868C1532.7 432.507 1553.19 432.196 1572.94 432.027C1595.01 431.838 1616.16 431.826 1633.41 432.118C1648.19 432.369 1659.67 432.949 1668.77 433.823M1247.8 386.484L1223.85 450.372M1247.8 386.484C1248.04 371.741 1248.34 352.179 1248.65 331.724C1249.35 285.171 1250.08 233.995 1250.08 224.484C1246.57 224.484 1243.48 222.951 1240.96 220.87C1237.58 218.089 1235.2 214.328 1234.11 211.935C1233.73 206.611 1233.2 193.225 1234.11 182.273C1235.03 171.321 1248.18 168.583 1254.65 168.583L1256.99 112.682M1247.8 386.484L1299.14 434.4M1223.85 450.372C1218.37 446.462 1206.14 440.943 1190.76 440.798M1223.85 450.372L1261.49 477.752L1299.14 434.4M948.901 573.583L895.282 488.02L968.296 444.667L977.423 458.358L999.993 444.667M948.901 573.583L1008.23 676.259L1064.13 644.153L1120.03 612.048L1177.07 579.287L1143.99 456.38M948.901 573.583C964.241 563.949 983.739 551.808 1004.8 538.84C1022.1 528.191 1040.45 516.985 1058.42 506.151C1091.07 486.472 1122.46 468.022 1143.99 456.38M816.563 654.583L742.408 635.189C718.07 592.217 668.254 504.676 663.69 498.287C653.651 505.589 645.056 500.569 642.014 497.146C639.732 494.104 633.344 484.825 626.042 472.048C618.741 459.27 629.085 448.47 635.169 444.667L613.086 405.52M816.563 654.583L814.282 707.062C794.251 700.298 756.355 696.168 723.014 714.1M816.563 654.583L912.394 596.4M580.408 934.09L482.296 883.893L525.648 808.597L542.761 816.583L554.169 797.252M580.408 934.09L684.225 993.414L717.257 935.801L750.288 878.189L782.338 822.287L694.84 736.724M580.408 934.09C587.966 920.638 599.933 899.387 613.846 874.766C623.693 857.34 634.514 838.224 645.437 818.99C657.908 797.029 670.51 774.912 681.944 754.977C685.884 748.108 690.214 742.051 694.84 736.724M500.549 1066.43C495.986 1067.57 482.296 1071.68 464.042 1078.98C436.662 1089.02 418.408 1085.44 412.704 1082.4C373.155 1060.72 292.003 1016.46 283.789 1012.81C276.487 1022.85 267.056 1023.84 263.254 1023.08C258.31 1020.79 246.141 1014.63 237.014 1008.24C227.887 1001.86 232.451 990.372 235.873 985.428L95.5493 910.132L178.555 762.963M500.549 1066.43L522.225 1116.63L477.732 1133.74C468.933 1137.72 455.356 1147.77 445.088 1164.54M500.549 1066.43L554.169 968.315M434.38 1429.22L330.563 1431.5V1355.06H346.535V1329.96M434.38 1429.22H554.169V1363.05V1304.86V1237.55L431.146 1210.17M434.38 1429.22C434.221 1419 434.018 1406.08 433.788 1391.57C433.662 1383.62 433.528 1375.19 433.389 1366.47C433.074 1346.74 432.733 1325.5 432.397 1304.86C431.86 1271.92 431.337 1240.52 430.958 1219.3C430.902 1216.17 430.968 1213.13 431.146 1210.17M551.887 1920.92L464.042 1974.54L421.831 1910.65L435.521 1900.39L424.821 1882.13M551.887 1920.92L662.549 1858.17L630.453 1804.55L598.357 1750.94L565.577 1696.17L438.205 1733.82M551.887 1920.92C543.815 1907.58 533.026 1889.79 521.426 1870.72C510.704 1853.1 499.29 1834.39 488.688 1817.1C471.853 1789.65 457.066 1765.77 450.352 1755.5C445.045 1747.38 441.1 1740.1 438.205 1733.82M659.127 2094.33C603.986 2127.41 490.282 2195.86 476.592 2204.99C482.068 2214.12 478.873 2222.48 476.592 2225.53C473.169 2228.19 463.13 2235.34 450.352 2242.64C437.575 2249.94 428.296 2239.6 425.254 2233.51L381.901 2260.11M659.127 2094.33L575.845 1957.43M659.127 2094.33C663.111 2107.19 672.719 2127.52 688.789 2147.85M1108.62 2362.43L1149.69 2384.1L1193.04 2265.46M1108.62 2362.43L960.31 2281.43L1024.2 2175.33L1193.04 2265.46M1108.62 2362.43C1093.82 2387.68 1072.43 2424.03 1052.13 2458.26C1042.27 2474.88 1032.67 2490.99 1024.2 2505.1C1008.87 2530.62 997.249 2549.56 994.535 2552.95C1009.14 2561.16 1008.23 2570.06 1005.94 2573.48C1002.9 2578.43 995.676 2589.91 991.113 2596.3C984.724 2605.43 973.239 2602.39 968.296 2599.72L940.491 2648.78L789.183 2915.74L461.761 2749.17L612.715 2477.65L637.451 2433.16L629.465 2413.77L650 2381.82L668.254 2378.4C675.39 2365.45 684.702 2348.62 694.792 2330.48C708.162 2306.45 722.896 2280.12 735.744 2257.47C749.366 2233.46 760.866 2213.59 766.366 2204.99M2390.93 1132.6L2272.28 1163.4V1239.84V1287.75V1347.08M766.366 2204.99L777.775 2187.88M766.366 2204.99C731.949 2192.56 706.461 2170.2 688.789 2147.85M777.775 2187.88L735.744 2166.2L818.845 2068.09L874.746 2097.57L930.648 2127.05L985.408 2155.94L921.521 2262.03L867.901 2234.37L777.775 2187.88ZM191.38 1953.73C211.16 1941.72 227.44 1931.75 233.592 1927.77C226.29 1914.99 235.113 1904.95 240.437 1901.53C246.901 1897.72 261.2 1889.21 266.676 1885.55C278.541 1878.25 287.592 1890.12 290.634 1896.96L332.845 1872M191.38 1953.73C161.275 1972 123.062 1995 100.113 2008.77L289.493 2316.79L381.901 2260.11M191.38 1953.73L275.267 2088.63M381.901 2260.11L297.968 2125.13M332.845 1872L396.732 1834.22L424.821 1882.13M332.845 1872L361.407 1917.5M275.267 2088.63L417.268 2006.48L361.407 1917.5M275.267 2088.63L297.968 2125.13M297.968 2125.13L391.028 2069.23L575.845 1957.43M361.407 1917.5L424.821 1882.13M575.845 1957.43L684.225 1893.54L782.338 2052.12L688.789 2147.85M438.205 1733.82C432.637 1721.74 430.958 1713.37 430.958 1709.86L430.378 1691.61M428.676 1637.99L430.378 1691.61M428.676 1637.99V1469.15M428.676 1637.99H275.803H222.183C221.27 1652.59 211.155 1656.24 206.211 1656.24H185.676C168.335 1656.24 165.521 1645.6 166.282 1640.27L114.944 1641.7L106.5 1641.93M430.378 1691.61L557.592 1655.1V1469.15H428.676M428.676 1469.15L275.803 1473.71L104.012 1475.99M275.803 1270.29L346.535 1268.36V1329.96M275.803 1270.29L221.042 1271.78C221.803 1265.7 219.901 1253.53 206.211 1253.53H175.408C171.225 1255.05 162.859 1260.83 162.859 1271.78C138.217 1271.78 45.3521 1274.06 2 1275.2V1363.05M275.803 1270.29V1329.96H346.535M431.146 1210.17C432.273 1191.48 437.86 1176.35 445.088 1164.54M445.088 1164.54L563.296 1197.63L664.831 1028.78L554.169 968.315M554.169 968.315L370.493 867.898M178.555 762.963L272.38 814.259M178.555 762.963L227.457 676.259L281.507 580.428C305.809 593.62 346.76 615.94 379.62 634.066C400.751 645.722 418.536 655.643 426.394 660.287C432.783 646.597 442.746 646.977 446.93 648.879C453.394 652.301 467.921 660.515 474.31 665.991C480.699 671.467 476.972 682.724 474.31 687.667L519.944 712.386M272.38 814.259L296.118 774.372L392.169 829.283M272.38 814.259L370.493 867.898M519.944 712.386L583.831 746.991L554.169 797.252M519.944 712.386L491.993 760.491M392.169 829.283L437.803 855.372L464.042 808.597L491.993 760.491M392.169 829.283L370.493 867.898M491.993 760.491L554.169 797.252M694.84 736.724C703.417 726.847 713.011 719.48 723.014 714.1M723.014 714.1L807.437 801.752L850.789 773.231L972.859 697.935L912.394 596.4M912.394 596.4L821.69 436.681L807.437 411.583L756.099 319.042M704.761 226.501L559.873 311.189L613.086 405.52M704.761 226.501L756.099 319.042M704.761 226.501L790.324 176.488M756.099 319.042L793.746 296.347M756.099 319.042L613.086 405.52M933.772 211.935C947.625 236.67 958.967 256.539 961.451 259.851C970.577 255.287 975.901 257.189 977.423 258.71C981.986 265.174 992.254 279.929 996.817 287.231C1001.38 294.532 991.873 306.245 986.549 311.189L1010.87 353.4M933.772 211.935C917.086 182.141 896.756 145.288 883.873 121.808L790.324 176.488M933.772 211.935L839.148 268.977M839.148 268.977L793.746 296.347M839.148 268.977L814.736 222.733L790.324 176.488M793.746 296.347L861.92 416.146L873.606 436.681L965.74 380.78M1010.87 353.4L1047.01 416.146L999.993 444.667M1010.87 353.4L965.74 380.78M965.74 380.78L999.993 444.667M1143.99 456.38C1154.86 450.501 1163.21 446.358 1167.94 444.667C1175.98 441.797 1183.7 440.732 1190.76 440.798M1190.76 440.798L1205.5 511.977L1214.72 556.47H1299.14H1388.13H1406.38L1407.67 511.977L1409.97 432.118M1422.35 3.92453L1624.28 2.01953C1623.41 30.9064 1622.05 76.9616 1621.04 112.682M1422.35 3.92453L1261.49 5.44207L1256.99 112.682M1422.35 3.92453L1419.21 112.682M1256.99 112.682H1419.21M1621.04 112.682C1620.28 139.503 1619.72 160.497 1619.72 164.02C1630.67 164.932 1634.17 171.245 1634.55 174.287V200.527C1634.55 217.867 1620.86 223.724 1614.01 224.484L1613.11 273.541M1621.04 112.682H1461.14M1416.08 220.87L1419.21 112.682M1416.08 220.87L1412.88 331.724L1409.97 432.118M1416.08 220.87H1456.58M1419.21 112.682H1461.14M1299.14 434.4L1388.13 432.568L1409.97 432.118M1456.58 220.87L1461.14 112.682M1456.58 220.87V273.541H1559.25M1456.58 220.87H1627M1613.11 273.541L1611.73 347.696H1559.25M1613.11 273.541H1559.25M1559.25 273.541V347.696M1668.77 433.823C1688.59 435.725 1697.19 439.016 1704.14 443.324M1704.14 443.324L1668.77 556.47L1833.06 647.738L1893.52 543.921M1893.52 543.921L1984.19 388.766L2028.19 313.47L2055.52 266.696M2055.52 266.696L2090.89 287.231M2055.52 266.696L2066.93 244.184L2107.85 176.52L2143.5 198.046M2143.5 198.046L2277.99 276.963C2254.79 316.893 2206.57 399.49 2199.27 410.442C2204.74 415.918 2206.11 424.893 2206.11 428.696C2205.35 429.836 2202.01 435.541 2194.7 449.231C2187.4 462.921 2173.41 466.343 2167.32 466.343L2145.73 502.851M2143.5 198.046L2103.44 266.696L2090.89 287.231M2090.89 287.231L2021.3 403.207L2007.61 428.696L2096.59 476.468M2145.73 502.851L2104.58 572.442L2056.66 542.701M2145.73 502.851L2096.59 476.468M2056.66 542.701L2038.41 531.372L2045.25 516.541L1980.23 478.893L1928.89 569.02L1869.56 669.414L1919.76 698.417L1974.52 730.056L2023.58 758.4L2104.58 678.939M2056.66 542.701L2096.59 476.468M2385.23 1389.29H2484.48V1449.75M2385.23 1389.29V1449.75V1510.22M2385.23 1389.29H2268.86V1450.89V1512.5M2686.41 1381.3V1541.02H2635.07C2633.24 1552.88 2625.94 1558.13 2622.52 1559.27H2594C2590.35 1559.27 2583.35 1550.15 2580.31 1545.58H2534.68M2686.41 1381.3H2789.08V1336.81M2686.41 1381.3H2635.07M2789.08 1336.81V1181.65L2652.18 1183.76L2640.77 1183.94C2639.96 1181.5 2637.81 1177.76 2634.03 1174.81M2789.08 1336.81H2652.18L2635.07 1343.73M2266.58 918.118L2351 867.921L2382.94 918.118M2266.58 918.118L2298 971.738L2329.42 1025.36L2371.54 1097.22M2266.58 918.118L2166.18 971.738L2200.41 1031.06L2232 1085.02L2258.59 1130.32L2371.54 1097.22M2194.7 788.062L2208.39 709.343L2281.41 664.412L2341.87 627.203C2338.22 619.901 2343.39 611.231 2346.44 607.808C2352.14 604.386 2365.15 597.084 2371.54 595.259C2377.92 593.434 2385.61 600.583 2388.65 604.386L2434.87 576.816L2518.7 526.808L2577.08 630.119L2666.33 788.062L2692.11 833.696L2601.99 889.037M2194.7 788.062L2138.8 781.217C2147.17 767.527 2161.39 735.355 2151.35 716.189C2149.86 713.344 2145.46 709.041 2138.8 703.642M2194.7 788.062L2247.18 879.613M1223.85 452.653L1247.8 388.766C1248.56 340.47 1250.08 240.456 1250.08 226.766C1241.87 226.766 1236.01 218.4 1234.11 214.217C1233.73 208.893 1233.2 195.507 1234.11 184.555C1235.03 173.603 1248.18 170.865 1254.65 170.865L1261.49 7.72376L1624.28 4.30122C1622.76 54.8787 1619.72 158.087 1619.72 166.301C1630.67 167.214 1634.17 173.527 1634.55 176.569V202.808C1634.55 211.375 1631.21 217.139 1627 220.87M500.549 1068.71C495.986 1069.85 482.296 1073.96 464.042 1081.26C436.662 1091.3 418.408 1087.72 412.704 1084.68C373.155 1063.01 292.003 1018.74 283.789 1015.09C276.487 1025.13 267.056 1026.12 263.254 1025.36C258.31 1023.08 246.141 1016.92 237.014 1010.53C227.887 1004.14 232.451 992.653 235.873 987.71L190.5 963.363M500.549 1068.71L522.225 1118.91L477.732 1136.02C468.933 1140 455.356 1150.05 445.088 1166.82M500.549 1068.71L554.169 970.597M434.38 1431.5L330.563 1433.78V1357.34H346.535V1332.24M434.38 1431.5H554.169V1365.33V1307.15V1239.84L431.146 1212.46M434.38 1431.5C434.221 1421.28 434.018 1408.36 433.788 1393.85C433.662 1385.9 433.528 1377.47 433.389 1368.75C433.074 1349.02 432.733 1327.78 432.397 1307.15C431.86 1274.2 431.337 1242.8 430.958 1221.58C430.902 1218.45 430.968 1215.41 431.146 1212.46M1667.63 1043.61V1025.36L1844.46 708.203L2023.58 812.02L2228.93 1165.68M2484.48 1449.75V1462.3H2467.37V1483.98M2484.48 1449.75H2534.68M2534.68 1449.75V1483.98M2534.68 1449.75V1381.3H2635.07M2534.68 1545.58H2503.87M2534.68 1545.58V1483.98M2534.68 1483.98H2503.87M2503.87 1483.98H2467.37M2503.87 1483.98V1545.58M2467.37 1483.98H2465.08M2467.37 1483.98V1545.58H2503.87M2635.07 1381.3V1343.73M2635.07 1343.73L2588.3 1344.44L2519.84 1345.51L2449.11 1346.61L2385.23 1347.6M2635.07 1343.73L2634.03 1174.81M2390.93 1189.64V1134.88V1130.32L2371.54 1097.22M2390.93 1189.64L2385.23 1242.12V1347.6M2390.93 1189.64C2406.86 1189.33 2427.36 1188.94 2449.11 1188.54C2472.6 1188.1 2497.57 1187.65 2519.84 1187.26C2553.75 1186.66 2581.45 1186.22 2588.3 1186.22C2588.3 1175.26 2597.42 1171.01 2601.99 1170.24H2620.24C2626.2 1170.24 2630.73 1172.23 2634.03 1174.81M2385.23 1347.6L2354.42 1348.08L2272.28 1349.36V1290.03M565.577 1698.46L438.205 1736.1C432.637 1724.03 430.958 1715.65 430.958 1712.15L430.378 1693.89M428.676 1640.27L430.378 1693.89M428.676 1640.27V1471.43M428.676 1640.27H275.803H222.183C221.27 1654.88 211.155 1658.53 206.211 1658.53H185.676C168.335 1658.53 165.521 1647.88 166.282 1642.55L114.944 1643.98L2 1647.12V1543.02M430.378 1693.89L557.592 1657.39V1471.43H428.676M428.676 1471.43L275.803 1475.99M275.803 1272.57L346.535 1270.64V1332.24M275.803 1272.57L221.042 1274.06C221.803 1267.98 219.901 1255.81 206.211 1255.81H175.408C171.225 1257.33 162.859 1263.11 162.859 1274.06C152.051 1274.06 128.121 1274.5 101 1275.09M275.803 1272.57V1332.24M275.803 1332.24V1433.78L103.465 1439.48M275.803 1332.24H346.535M431.146 1212.46C432.273 1193.76 437.86 1178.63 445.088 1166.82M445.088 1166.82L563.296 1199.91L664.831 1031.06L554.169 970.597M554.169 970.597L370.493 870.179M178.555 765.245L95.5493 912.414L190.5 963.363M178.555 765.245L272.38 816.54M178.555 765.245L203.006 721.893M272.38 816.54L296.118 776.653M272.38 816.54L321.437 843.36L370.493 870.179M272.38 816.54L190.5 963.363M296.118 776.653L392.169 831.565M296.118 776.653L203.006 721.893M392.169 831.565L437.803 857.653L464.042 810.879L519.944 714.667L474.31 689.949C476.972 685.005 480.699 673.749 474.31 668.273C467.921 662.797 453.394 654.583 446.93 651.16C442.746 649.259 432.783 648.879 426.394 662.569C418.536 657.925 400.751 648.004 379.62 636.348C346.76 618.222 305.809 595.902 281.507 582.71L227.457 678.541L203.006 721.893M392.169 831.565L370.493 870.179M2473.07 968.315L2515.28 943.217C2517.56 948.16 2527.15 955.766 2547.23 946.639C2567.3 937.512 2565.48 920.78 2562.06 913.555L2601.99 889.037M2473.07 968.315L2449.11 918.118M2473.07 968.315L2445.12 986.569M2449.11 918.118L2417.17 937.512M2449.11 918.118L2434.87 893.02M2385.23 956.907L2376.1 943.217L2390.93 930.667L2382.94 918.118M2385.23 956.907L2417.17 1004.82L2445.12 986.569M2385.23 956.907L2417.17 937.512M2417.17 937.512L2445.12 986.569M2434.87 893.02L2401.2 833.696L2417.17 824.276L2534.68 754.977M2434.87 893.02L2382.94 918.118M2601.99 889.037L2577.08 839.433L2534.68 754.977M2534.68 754.977L2514.14 718.321L2425.16 772.085L2394.35 790.696L2363.55 809.306L2291.68 852.731L2247.18 879.613M2138.8 703.642L2057.8 781.217L2151.35 937.512L2247.18 879.613M2138.8 703.642C2130.48 696.885 2118.63 688.413 2104.58 678.939M101 1275.09C66.2832 1275.84 26.3386 1276.84 2 1277.48V1363.05M101 1275.09L102.319 1363.05L102.909 1402.41M106.5 1641.93L2 1644.84V1543.02M106.5 1641.93L105.017 1543.02M2 1363.05V1439.48V1480.55V1543.02M2 1363.05V1402.41M2 1543.02V1482.84V1441.77V1402.41M2 1543.02H105.017M105.017 1543.02L103.465 1439.48M2 1402.41H102.909M102.909 1402.41L103.465 1439.48" stroke="black" stroke-width="4"/>
<path d="M823.421 840.744L997.151 746.498L1320.77 1258.61L1218.57 1321.06L1143.63 1467.54L1022.13 1409.63L602 1417.57V1232.49L823.421 840.744Z" fill="white" stroke="black" stroke-width="4"/>
<path d="M1454.76 1179.12L1351.43 1239.3L1030.08 722.653L1226.52 609.103L1650.06 600.02L1809.03 687.452L1613.72 1040.59V1171.17L1454.76 1179.12Z" fill="white" stroke="black" stroke-width="4"/>
<path d="M2594 1559.27C2590.35 1559.27 2583.35 1550.15 2580.31 1545.58H2534.68V1483.98V1449.75V1381.3H2635.07H2686.41V1541.02H2635.07C2633.24 1552.88 2625.94 1558.13 2622.52 1559.27H2594Z" fill="#D9D9D9" stroke="black" stroke-width="4"/>
<path d="M2789.08 1181.65V1336.81H2652.18L2635.07 1343.73L2634.03 1174.81C2637.81 1177.76 2639.96 1181.5 2640.77 1183.93L2652.18 1183.76L2789.08 1181.65Z" fill="#D9D9D9" stroke="black" stroke-width="4"/>
<path d="M2601.99 1170.25H2620.24C2626.2 1170.25 2630.73 1172.23 2634.03 1174.81L2635.07 1343.73L2588.29 1344.44L2519.84 1345.51L2449.11 1346.61L2385.22 1347.6V1242.12L2390.93 1189.64C2406.86 1189.33 2427.36 1188.94 2449.11 1188.54C2472.6 1188.1 2497.56 1187.65 2519.84 1187.26C2553.75 1186.66 2581.45 1186.22 2588.29 1186.22C2588.29 1175.26 2597.42 1171.01 2601.99 1170.25Z" fill="#D9D9D9" stroke="black" stroke-width="4"/>
<path d="M2390.93 1132.6L2272.28 1163.4V1239.84V1287.75V1290.03V1347.08V1349.36L2354.42 1348.08L2385.22 1347.6V1242.12L2390.93 1189.64V1134.88V1132.6Z" fill="#D9D9D9"/>
<path d="M2390.93 1132.6L2272.28 1163.4V1239.84V1287.75V1347.08M2390.93 1130.32V1134.88V1189.64L2385.22 1242.12V1347.6L2354.42 1348.08L2272.28 1349.36V1290.03" stroke="black" stroke-width="4"/>
<path d="M2166.18 971.738L2266.58 918.118L2371.54 1097.22L2258.59 1130.32L2200.41 1031.06L2166.18 971.738Z" fill="#D9D9D9" stroke="black" stroke-width="4"/>
<path d="M2138.8 781.217L2194.7 788.062L2247.18 879.613L2151.35 937.513L2057.8 781.217L2138.8 703.643C2145.46 709.041 2149.86 713.345 2151.35 716.189C2161.39 735.355 2147.17 767.527 2138.8 781.217Z" fill="#D9D9D9" stroke="black" stroke-width="4"/>
<path d="M2371.54 595.259C2377.92 593.434 2385.61 600.583 2388.65 604.386L2434.87 576.816L2518.7 526.809L2666.33 788.062L2692.11 833.696L2601.99 889.037L2577.08 839.433L2534.68 754.978L2514.14 718.322L2394.35 790.696L2363.55 809.307L2247.18 879.613L2194.7 788.062L2208.39 709.344L2341.87 627.203C2338.22 619.902 2343.39 611.231 2346.44 607.809C2352.14 604.386 2365.15 597.085 2371.54 595.259Z" fill="#D9D9D9"/>
<path d="M2434.87 576.816L2518.7 526.809L2666.33 788.062L2692.11 833.696L2601.99 889.037L2577.08 839.433L2534.68 754.978L2514.14 718.322M2434.87 576.816L2388.65 604.386C2385.61 600.583 2377.92 593.434 2371.54 595.259C2365.15 597.085 2352.14 604.386 2346.44 607.809C2343.39 611.231 2338.22 619.902 2341.87 627.203L2208.39 709.344L2194.7 788.062L2247.18 879.613L2363.55 809.307L2394.35 790.696L2514.14 718.322M2434.87 576.816L2514.14 718.322" stroke="black" stroke-width="4"/>
<path d="M2023.58 758.4L1974.52 730.056L1869.56 669.414L1929 571.02C1944.45 580.205 2011.98 620.372 2028.14 630.272C2055.66 647.129 2082.77 664.24 2104.58 678.939L2023.58 758.4Z" stroke="black" stroke-width="4"/>
<path d="M1742.93 511.977C1750.15 508.554 1770.99 498.971 1796.55 488.019L1893.52 543.921L1833.06 647.738L1668.77 556.47L1704.14 443.323C1708.55 446.056 1712.3 449.197 1717.83 452.653C1732.43 461.78 1740.65 496.005 1742.93 511.977Z" stroke="black" stroke-width="4"/>
<path d="M1893.52 543.921L1796.55 488.02C1781.95 446.949 1780.58 426.034 1781.72 419.569C1788.41 408.106 1797.33 392.876 1806.82 376.737C1820.72 353.083 1835.83 327.475 1846.95 308.907C1853.67 297.694 1858.93 289.047 1861.58 284.949C1851.54 280.386 1850.55 270.879 1851.31 266.696C1853.97 261.372 1861.12 248.442 1868.42 239.315C1875.72 230.189 1886.68 232.47 1891.24 234.752L1933.62 165.386L1976 96.0195L2107.85 176.52L2067.23 246.52L2055.52 266.696L2027.28 315.02L1984.19 388.766L1893.52 543.921Z" fill="#D9D9D9"/>
<path d="M1891.24 234.752C1886.68 232.47 1875.72 230.189 1868.42 239.315C1861.12 248.442 1853.97 261.372 1851.31 266.696C1850.55 270.879 1851.54 280.386 1861.58 284.949C1858.93 289.047 1853.67 297.694 1846.95 308.907C1835.83 327.475 1820.72 353.083 1806.82 376.737C1797.33 392.876 1788.41 408.106 1781.72 419.569C1780.58 426.034 1781.95 446.949 1796.55 488.02L1893.52 543.921L1984.19 388.766L2027.28 315.02M1891.24 234.752L1933.62 165.386M1891.24 234.752L2027.28 315.02M1933.62 165.386L1976 96.0195L2107.85 176.52L2067.23 246.52M1933.62 165.386L2067.23 246.52M2067.23 246.52L2055.52 266.696L2027.28 315.02" stroke="black" stroke-width="4"/>
<path d="M1633.41 434.4L1666.5 436.682L1634.55 551.907L1572.94 553.419L1510.77 554.945L1448.59 556.471V436.682C1487.76 435.541 1579.56 433.488 1633.41 434.4Z" fill="#D9D9D9" stroke="black" stroke-width="4"/>
<path d="M1190.76 440.798C1206.14 440.943 1218.37 446.462 1223.84 450.372L1261.49 477.752L1299.14 434.4L1388.13 432.568L1409.97 432.118L1407.67 511.977L1406.38 556.47H1388.13H1299.14H1214.72L1205.5 511.977L1190.76 440.798Z" fill="#D9D9D9" stroke="black" stroke-width="4"/>
<path d="M1234.11 182.273C1235.03 171.321 1248.18 168.583 1254.65 168.583L1256.99 112.682H1419.21L1416.08 220.87L1409.98 432.118L1388.13 432.568L1299.14 434.4L1247.8 388.766C1248.56 340.47 1250.08 240.456 1250.08 226.766C1241.87 226.766 1236.01 218.4 1234.11 214.217C1233.87 210.884 1233.58 204.392 1233.61 197.315C1233.59 192.43 1233.71 187.114 1234.11 182.273Z" fill="#D9D9D9"/>
<path d="M1234.11 211.935C1233.73 206.611 1233.2 193.225 1234.11 182.273C1235.03 171.321 1248.18 168.583 1254.65 168.583L1256.99 112.682H1419.21L1416.08 220.87L1409.98 432.118L1388.13 432.568L1299.14 434.4L1247.8 388.766C1248.56 340.47 1250.08 240.456 1250.08 226.766C1241.87 226.766 1236.01 218.4 1234.11 214.217C1233.73 208.893 1233.2 195.507 1234.11 184.555" stroke="black" stroke-width="4"/>
</svg>
