<svg width="1223" height="1280" viewBox="0 0 1223 1280" fill="none" xmlns="http://www.w3.org/2000/svg">
<path opacity="0.49" d="M994 690.005H976.5V509.505L886.5 354.505L808 309.005L730.5 448.005V456.005H779L791.5 464.005L794 458.505L806 464.005L802 469.005L910.5 521.505L914.5 514.505L923 520.005L838 678.005L794.5 659.005L800 649.005L791 644.505L794.5 637.505L749 614.505L744 619.005L736 613.005L660.5 614.505L609 646.005C600 662.505 581.3 697.605 578.5 706.005C575.7 714.405 579.667 715.838 582 715.505V726.005H576V775.005H582V785.005H595.5V833.005L412.5 843.505V833.005H420.5L418.5 708.505H410V697.005H417V679.505L438.5 639.505L261 643.505L262.5 734.005L356 887.005L368.5 894.005L522.5 977.005V992.505M994 690.005L1045 702.005V660.505M994 690.005V661.505M1045 607.505H1088.5V634.005M1045 607.505V634.005M1045 607.505H994V634.505M1177 604.005V674.005H1154.5C1153.7 679.205 1150.5 681.505 1149 682.005H1136.5C1134.9 682.005 1131.83 678.005 1130.5 676.005H1110.5M1177 604.005H1222V516.505L1157 517.505C1156.33 515.505 1153.6 511.505 1148 511.505H1140C1138 511.838 1134 513.705 1134 518.505C1131 518.505 1118.86 518.7 1104 518.96M1177 604.005H1154.5M845 249.005L867.5 209.505L896 226.005L893 232.505L901 237.47M845 249.005L819 293.005L841 305.716M845 249.005C851.391 252.687 859.162 257.227 867.5 262.184M787 213.505C780.6 195.505 780 185.338 780.5 182.505C783.466 177.427 787.427 170.663 791.634 163.505M787 213.505C775.8 218.305 766.667 222.505 763.5 224.005C762.5 217.005 758.9 202.005 752.5 198.005C750.077 196.49 748.433 195.113 746.5 193.916M787 213.505L789 214.658M634.5 190.005L636 145.005H670V152.005H683M634.5 190.005V243.505L661.75 242.836M634.5 190.005C641.243 189.808 651.545 189.55 663 189.334M546.5 169.005L536 197.005M546.5 169.005C546.602 162.543 546.735 153.97 546.87 145.005M546.5 169.005L569 190.005M536 197.005C533.601 195.291 528.241 192.873 521.5 192.809M536 197.005L552.5 209.005L569 190.005M415.5 251.005L392 213.505L424 194.505L428 200.505L437.892 194.505M415.5 251.005L441.5 296.005L466 281.934M415.5 251.005C422.223 246.783 430.768 241.462 440 235.778M290.5 218.005C286.1 221.205 282.333 219.005 281 217.505C280 216.172 277.2 212.105 274 206.505C270.8 200.905 275.333 196.172 278 194.505L245 136.005L308.5 98.8887M290.5 218.005C292.5 220.805 314.333 259.172 325 278.005L357.5 286.505M290.5 218.005L353.5 180.005M357.5 286.505L356.5 309.505M357.5 286.505L399.5 261.005M356.5 309.505C347.721 306.541 331.112 304.731 316.5 312.59M356.5 309.505L372.5 338.505M254 409.005L211 387.005L230 354.005L237.5 357.505L242.5 349.033M254 409.005L299.5 435.005L313.977 409.755M254 409.005C257.312 403.109 262.557 393.796 268.655 383.005M219 467.005C217 467.505 211 469.305 203 472.505C191 476.905 183 475.338 180.5 474.005C163.167 464.505 127.6 445.105 124 443.505C120.8 447.905 116.667 448.338 115 448.005C112.833 447.005 107.5 444.305 103.5 441.505C99.5 438.705 101.5 433.672 103 431.505L41.5 398.505L77.8789 334.005M219 467.005L228.5 489.005L209 496.505C205.144 498.249 199.193 502.655 194.693 510.005M219 467.005L242.5 424.005M190 626.005L144.5 627.005V593.505H151.5V582.505M190 626.005H242.5V597.005M190 626.005C189.93 621.528 189.841 615.866 189.74 609.505M71 557.005C71 552.205 74.6667 549.672 76.5 549.005H90C96 549.005 96.8333 554.338 96.5 557.005L120.5 556.35M71 557.005C60.2 557.005 19.5 558.005 0.5 558.505V630.505M71 557.005V630.505M97 717.505C96.6 723.905 92.1667 725.505 90 725.505H81C73.4 725.505 72.1667 720.838 72.5 718.505L50 719.13M97 717.505H120.5M97 717.505V665.005M241.5 841.505L203 865.005L184.5 837.005L190.5 832.505L185.81 824.505M241.5 841.505L290 814.005L275.933 790.505M241.5 841.505C237.962 835.658 233.234 827.86 228.149 819.505M208.5 966.005C210.9 970.005 209.5 973.672 208.5 975.005C207 976.172 202.6 979.305 197 982.505C191.4 985.705 187.333 981.172 186 978.505L167 990.16M208.5 966.005C214.5 962.005 264.333 932.005 288.5 917.505M208.5 966.005L171 906.505M288.5 917.505L252 857.505M288.5 917.505C290.246 923.14 294.457 932.05 301.5 940.96M279 1066L275.5 1057.5L284.5 1043.5L292.5 1042C295.628 1036.33 299.709 1028.95 304.131 1021M279 1066L268.159 1085.5M279 1066L315.5 1083.85M485.5 1035L503.5 1044.5L522.5 992.505M485.5 1035L420.5 999.505M485.5 1035C479.014 1046.07 469.641 1062 460.741 1077M522.5 992.505L448.5 953.005L420.5 999.505M420.5 999.505L396.5 1042L460.741 1077M460.741 1077C456.421 1084.29 452.212 1091.35 448.5 1097.53M448.5 1097.53C441.782 1108.72 436.689 1117.02 435.5 1118.5C441.9 1122.1 441.5 1126 440.5 1127.5C439.167 1129.67 436 1134.7 434 1137.5C431.2 1141.5 426.167 1140.17 424 1139L411.814 1160.5M448.5 1097.53L386.5 1063.5L349.5 1127.5L411.814 1160.5M411.814 1160.5L345.5 1277.5L202 1204.5L268.159 1085.5M994 661.505L1045 660.505M994 661.505V634.505M1045 660.505V634.005M994 634.505L1045 634.005M1088.5 634.005V639.505H1081V649.005M1088.5 634.005H1110.5M1110.5 634.005V649.005M1110.5 634.005V604.005H1154.5M1110.5 676.005H1097M1110.5 676.005V649.005M1110.5 649.005H1097M1097 649.005H1081M1097 649.005V676.005M1081 649.005H1080M1081 649.005V676.005H1097M1154.5 604.005V587.532M1154.5 587.532V586.505H1220.5L1154.5 587.532ZM1154.5 587.532L1104 588.317M1047.5 520.005V496.005M1047.5 520.005L1045 543.005M1047.5 520.005C1054.48 519.871 1063.47 519.7 1073 519.523M1047.5 496.005V494.005L993 401.005L1030 379.005L1047.5 406.505L1041 412.005L1059 439.005L1102 412.005C1103 414.172 1107.2 417.505 1116 413.505C1124.8 409.505 1124 402.172 1122.5 399.005L1179.5 364.005L1103.5 229.505L1046.5 263.505C1045.17 261.838 1041.8 258.705 1039 259.505C1036.2 260.305 1030.5 263.505 1028 265.005C1026.67 266.505 1024.4 270.305 1026 273.505L967.5 309.505L961.5 344.005L937 341.005C940.667 335.005 946.9 320.905 942.5 312.505C941.03 309.698 933.08 303.649 922 296.18M1047.5 496.005L995.5 509.505V543.005M1045 543.005V589.235M1045 543.005H1031.5M995.5 543.005H1031.5M995.5 543.005V564.005M1045 589.235L1031.5 589.445M1045 589.235L1073 588.799M1031.5 589.445L995.5 590.005V564.005M1031.5 589.445V564.005M1031.5 543.005V564.005M1031.5 564.005H995.5M268.159 1085.5L331 1118.5L343.5 1097.53M343.5 1097.53L368.5 1055.5L323.5 1031.39M343.5 1097.53L315.5 1083.85M304.131 1021C309.991 1010.47 316.448 998.931 322.079 989.005M304.131 1021L323.5 1031.39M315.5 1083.85L336 1048.5M1104 588.317L1073 588.799M1104 588.317V518.96M1073 588.799V519.523M1073 519.523C1083.3 519.331 1094.24 519.132 1104 518.96M335.5 966.005C333.089 969.772 328.049 978.48 322.079 989.005M335.5 966.005L340.5 958.505M335.5 966.005C320.416 960.558 309.245 950.758 301.5 940.96M322.079 989.005L340.5 1000.09M340.5 958.505L322.079 949.005L358.5 906.005L383 918.926M340.5 958.505L380 978.882M403.5 991.005L380 1033.5L345 1015.5L349.5 1005.5L340.5 1000.09M403.5 991.005L431.5 944.505L407.5 931.847M403.5 991.005L380 978.882M323.5 1031.39L340.5 1000.09M380 978.882L407.5 931.847M407.5 931.847L383 918.926M383 918.926L370 944.505M83.5 855.882C92.1688 850.62 99.3038 846.25 102 844.505C98.8 838.905 102.667 834.505 105 833.005C107.833 831.338 114.1 827.605 116.5 826.005C121.7 822.805 125.667 828.005 127 831.005L145.5 820.064M83.5 855.882C70.3058 863.892 53.5583 873.97 43.5 880.005L126.5 1015L167 990.16M83.5 855.882L120.265 915.005M167 990.16L130.215 931.005M145.5 820.064L173.5 803.505L185.81 824.505M145.5 820.064L158.018 840.005M120.265 915.005L182.5 879.005L158.018 840.005M120.265 915.005L130.215 931.005M130.215 931.005L171 906.505M171 906.505L252 857.505M158.018 840.005L185.81 824.505M252 857.505L299.5 829.505L342.5 899.005L301.5 940.96M191.676 759.505C189.236 754.211 188.5 750.54 188.5 749.005L188.246 741.005M191.676 759.505C192.945 762.257 194.674 765.448 197 769.005C199.942 773.505 206.423 783.971 213.802 796.005M191.676 759.505L247.5 743.005L261.866 767.005M213.802 796.005L261.866 767.005M213.802 796.005C218.448 803.583 223.451 811.782 228.149 819.505M261.866 767.005L275.933 790.505M228.149 819.505L275.933 790.505M187.5 717.505L188.246 741.005M187.5 717.505V643.505M187.5 717.505H120.5M188.246 741.005L244 725.005V643.505H187.5M187.5 643.505L120.5 645.505M120.5 645.505H97M120.5 645.505V665.005M120.5 717.505V665.005M97 645.505V665.005M97 645.505L50 648.505M97 665.005H120.5M50 648.505V719.13M50 648.505H0.5M50 719.13L0.5 720.505V648.505M0.5 648.505V630.505M0.5 630.505H71M71 630.505H120.5V582.505M120.5 556.35L151.5 555.505V582.505M120.5 556.35V582.505M120.5 582.505H151.5M242.5 597.005L209 597.954M242.5 597.005V571.505M209 597.954L189.566 598.505M209 597.954V609.505H189.74M189.566 598.505C189.626 602.328 189.685 606.021 189.74 609.505M189.566 598.505C189.428 589.857 189.278 580.548 189.131 571.505M189.131 571.505C188.895 557.065 188.666 543.305 188.5 534.005C188.475 532.632 188.505 531.299 188.583 530.005M189.131 571.505H242.5M242.5 571.505V542.005L188.583 530.005M188.583 530.005C189.076 521.813 191.525 515.179 194.693 510.005M194.693 510.005L246.5 524.505L291 450.505L242.5 424.005M242.5 424.005L162 379.995M77.8789 334.005L119 356.486M77.8789 334.005L99.3114 296.005M119 356.486L129.404 339.005M119 356.486L162 379.995M166 277.513C175.261 282.621 183.056 286.97 186.5 289.005C189.3 283.005 193.667 283.172 195.5 284.005C198.333 285.505 204.7 289.105 207.5 291.505C210.3 293.905 208.667 298.838 207.5 301.005L227.5 311.838M166 277.513C151.599 269.569 133.651 259.787 123 254.005L99.3114 296.005M166 277.513L141.087 319.373M99.3114 296.005L141.087 319.373M141.087 319.373L203 354.005M141.087 319.373L129.404 339.005M203 354.005L191.5 374.505L171.5 363.071M203 354.005L215.25 332.922M227.5 311.838L255.5 327.005L242.5 349.033M227.5 311.838L215.25 332.922M129.404 339.005L171.5 363.071M171.5 363.071L162 379.995M215.25 332.922L242.5 349.033M304.152 322.505C302.125 324.839 300.227 327.494 298.5 330.505C293.489 339.242 287.966 348.935 282.5 358.56M304.152 322.505L342.5 360.005L328.453 384.505M304.152 322.505C307.911 318.176 312.116 314.948 316.5 312.59M282.5 358.56L328.453 384.505M282.5 358.56C277.713 366.99 272.97 375.367 268.655 383.005M328.453 384.505L313.977 409.755M313.977 409.755L268.655 383.005M316.5 312.59L353.5 351.005L372.5 338.505M372.5 338.505L426 305.505L399.5 261.005M399.5 261.005L359.747 191.005M353.5 180.005L331 139.447M353.5 180.005L359.747 191.005M308.5 98.8887L331 139.447M308.5 98.8887L346 76.9697M331 139.447L347.5 129.5M408.869 92.5049C414.941 103.345 419.911 112.053 421 113.505C425 111.505 427.333 112.338 428 113.005C430 115.838 434.5 122.305 436.5 125.505C438.5 128.705 434.333 133.838 432 136.005L442.658 154.505M408.869 92.5049C401.556 79.4471 392.646 63.2953 387 53.0049L346 76.9697M408.869 92.5049L367.398 117.505M367.398 117.505L346 76.9697M367.398 117.505L347.5 129.5M347.5 129.5L377.378 182.005M442.658 154.505L458.5 182.005L437.892 194.505M442.658 154.505L422.88 166.505M359.747 191.005L377.378 182.005M377.378 182.005L382.5 191.005L422.88 166.505M422.88 166.505L437.892 194.505M501 199.638C505.764 197.062 509.425 195.246 511.5 194.505C515.023 193.247 518.407 192.78 521.5 192.809M501 199.638L515.5 253.505L490.5 267.863M501 199.638C491.565 204.741 477.808 212.827 463.5 221.451M463.5 221.451L490.5 267.863M463.5 221.451C455.624 226.199 447.58 231.111 440 235.778M490.5 267.863L466 281.934M466 281.934L440 235.778M521.5 192.809L527.961 224.005M623 1.33979L711.5 0.504883C711.119 13.1652 710.521 33.3499 710.078 49.0049M623 1.33979L552.5 2.00488L550.528 49.0049M623 1.33979L621.622 49.0049M550.528 49.0049L549.5 73.5049C546.667 73.5049 540.9 74.7049 540.5 79.5049C540.1 84.3049 540.333 90.1715 540.5 92.5049C540.977 93.5535 542.02 95.2018 543.5 96.4208M550.528 49.0049H621.622M710.078 49.0049C709.745 60.7599 709.5 69.961 709.5 71.5049C714.3 71.9049 715.833 74.6715 716 76.0049V87.5049C716 95.1049 710 97.6715 707 98.0049L706.602 119.505M710.078 49.0049H640M543.5 96.4208C544.607 97.3331 545.959 98.0049 547.5 98.0049C547.5 102.173 547.178 124.602 546.87 145.005M543.5 96.4208H620.252M620.252 96.4208L621.622 49.0049M620.252 96.4208L618.847 145.005M620.252 96.4208H638M621.622 49.0049H640M546.87 145.005H618.847M618.847 145.005L617.575 189.005M569 190.005V224.005M569 190.005L608 189.202M617.575 189.005L616.564 224.005M617.575 189.005L608 189.202M569 243.505H532L527.961 224.005M569 243.505V224.005M569 243.505H608M569 224.005H527.961M569 224.005H608M616.564 224.005L616 243.505H608M616.564 224.005H608M608 224.005V189.202M608 224.005V243.505M638 96.4208L640 49.0049M638 96.4208V119.505H683M706.602 119.505L706 152.005H683M706.602 119.505H683M683 119.505V152.005M731 189.752C727.008 189.369 721.977 189.115 715.5 189.005C707.939 188.877 698.67 188.882 689 188.965M731 189.752L716 241.505L689 242.167M731 189.752C739.683 190.586 743.452 192.028 746.5 193.916M689 242.167V188.965M689 242.167L661.75 242.836M689 188.965C680.343 189.039 671.364 189.175 663 189.334M663 189.334L661.75 242.836M746.5 193.916L731 243.505L803 283.505L829.5 238.005M829.5 238.005L789 214.658M829.5 238.005L869.237 170.005L809.39 133.505M791.634 163.505L812.5 176.334M791.634 163.505C797.815 152.988 804.526 141.62 809.39 133.505M789 214.658L812.5 176.334M812.5 176.334L851 200.005M809.39 133.505C812.19 128.834 814.378 125.24 815.5 123.505C811.1 121.505 810.667 117.338 811 115.505C812.167 113.172 815.3 107.505 818.5 103.505C821.7 99.5049 826.5 100.505 828.5 101.505L829.112 100.505M829.112 100.505L888.521 137.005L900.5 116.505L916 125.505M829.112 100.505L847.306 70.7549M847.306 70.7549L865.5 41.0049L923.469 76.0049M847.306 70.7549L905.5 106.639M939.5 85.6841L998 121.005C987.833 138.505 966.7 174.705 963.5 179.505C965.9 181.905 966.5 185.838 966.5 187.505C966.167 188.005 964.7 190.505 961.5 196.505C958.3 202.505 952.167 204.005 949.5 204.005L940.038 220.005M939.5 85.6841L921.5 116.505M939.5 85.6841L923.469 76.0049M921.5 116.505L905.5 106.639M921.5 116.505L916 125.505M923.469 76.0049L905.5 106.639M916 125.505L885.5 176.334L879.5 187.505L918.5 208.442M940.038 220.005L922 250.505L901 237.47M940.038 220.005L918.5 208.442M901 237.47L918.5 208.442M922 296.18L886.5 332.005L865 319.583M922 296.18C912.709 289.915 901.217 282.652 889.5 275.463M865 319.583L889.5 275.463M865 319.583L841 305.716M889.5 275.463C882.09 270.917 874.59 266.4 867.5 262.184M867.5 262.184L841 305.716M994 691.005H976.5V510.505L886.5 355.505L808 310.005L730.5 449.005V457.005H779L791.5 465.005L794 459.505L806 465.005L802 470.005L910.5 522.505L914.5 515.505L923 521.005L838 679.005L794.5 660.005L800 650.005L791 645.505L794.5 638.505L749 615.505L744 620.005L736 614.005L660.5 615.505L609 647.005C600 663.505 581.3 698.605 578.5 707.005C575.7 715.405 579.667 716.838 582 716.505V727.005H576V776.005H582V786.005H595.5V834.005L412.5 844.505V834.005H420.5L418.5 709.505H410V698.005H417V680.505L438.5 640.505L261 644.505L262.5 735.005L356 888.005L368.5 895.005L522.5 978.005V993.505M994 691.005L1045 703.005V661.505M994 691.005V662.505M1045 608.505H1088.5V635.005M1045 608.505V635.005M1045 608.505H994V635.505M1177 605.005V675.005H1154.5C1153.7 680.205 1150.5 682.505 1149 683.005H1136.5C1134.9 683.005 1131.83 679.005 1130.5 677.005H1110.5M1177 605.005H1222V585.505M1177 605.005H1154.5M1222 585.505V517.505L1162 518.428M1222 585.505H1162M1134 519.505C1134 514.705 1138 512.838 1140 512.505H1148C1153.6 512.505 1156.33 516.505 1157 518.505L1162 518.428M1134 519.505C1131 519.505 1118.86 519.7 1104 519.96M1134 519.505V588.85M993 402.005L1030 380.005L1044 402.005M993 402.005L1006.77 425.505M993 402.005L949 425.505L964 451.505M1026 274.505C1024.4 271.305 1026.67 267.505 1028 266.005C1030.5 264.505 1036.2 261.305 1039 260.505C1041.8 259.705 1045.17 262.838 1046.5 264.505L1066.76 252.422M1026 274.505L999.5 290.813M1026 274.505L1062.5 338.003M967.5 310.505L961.5 345.005M967.5 310.505L1004 373.348M967.5 310.505L999.5 290.813M961.5 345.005L937 342.005C940.667 336.005 946.9 321.905 942.5 313.505C941.847 312.258 939.916 310.372 937 308.006M961.5 345.005L984.5 385.129M219 468.005C217 468.505 211 470.305 203 473.505C191 477.905 183 476.338 180.5 475.005C163.167 465.505 127.6 446.105 124 444.505C120.8 448.905 116.667 449.338 115 449.005C112.833 448.005 107.5 445.305 103.5 442.505C99.5 439.705 101.5 434.672 103 432.505L41.5 399.505L77.8789 335.005M219 468.005L228.5 490.005L209 497.505C205.144 499.249 199.193 503.655 194.693 511.005M219 468.005L242.5 425.005M190 627.005L144.5 628.005V594.505H151.5V583.505M190 627.005H242.5V598.005M190 627.005C189.93 622.528 189.841 616.866 189.74 610.505M71 558.005C71 553.205 74.6667 550.672 76.5 550.005H90C96 550.005 96.8333 555.338 96.5 558.005L120.5 557.35M71 558.005C60.2 558.005 19.5 559.005 0.5 559.505V631.505M71 558.005V631.505M97 718.505C96.6 724.905 92.1667 726.505 90 726.505H81C73.4 726.505 72.1667 721.838 72.5 719.505L50 720.13M97 718.505H120.5M97 718.505V666.005M241.5 842.505L203 866.005L184.5 838.005L190.5 833.505L185.81 825.505M241.5 842.505L290 815.005L275.933 791.505M241.5 842.505C237.962 836.658 233.234 828.86 228.149 820.505M208.5 967.005C210.9 971.005 209.5 974.672 208.5 976.005C207 977.172 202.6 980.305 197 983.505C191.4 986.705 187.333 982.172 186 979.505L167 991.16M208.5 967.005C214.5 963.005 264.333 933.005 288.5 918.505M208.5 967.005L171 907.505M288.5 918.505L252 858.505M288.5 918.505C290.246 924.14 294.457 933.05 301.5 941.96M279 1067L275.5 1058.5L284.5 1044.5L292.5 1043C295.628 1037.33 299.709 1029.95 304.131 1022M279 1067L268.159 1086.5M279 1067L315.5 1084.85M485.5 1036L503.5 1045.5L522.5 993.505M485.5 1036L420.5 1000.5M485.5 1036C479.014 1047.07 469.641 1063 460.741 1078M522.5 993.505L448.5 954.005L420.5 1000.5M420.5 1000.5L396.5 1043L460.741 1078M460.741 1078C456.421 1085.29 452.212 1092.35 448.5 1098.53M448.5 1098.53C441.782 1109.72 436.689 1118.02 435.5 1119.5C441.9 1123.1 441.5 1127 440.5 1128.5C439.167 1130.67 436 1135.7 434 1138.5C431.2 1142.5 426.167 1141.17 424 1140L411.814 1161.5M448.5 1098.53L386.5 1064.5L349.5 1128.5L411.814 1161.5M411.814 1161.5L345.5 1278.5L202 1205.5L268.159 1086.5M994 662.505L1045 661.505M994 662.505V635.505M1045 661.505V635.005M994 635.505L1045 635.005M1088.5 635.005V640.505H1081V650.005M1088.5 635.005H1110.5M1110.5 635.005V650.005M1110.5 635.005V605.005H1154.5M1110.5 677.005H1097M1110.5 677.005V650.005M1110.5 650.005H1097M1097 650.005H1081M1097 650.005V677.005M1081 650.005H1080M1081 650.005V677.005H1097M1154.5 605.005V588.537M1154.5 588.537L1162 585.505M1154.5 588.537L1134 588.85M1047.5 521.005V497.005M1047.5 521.005L1045 544.005M1047.5 521.005C1054.48 520.871 1063.47 520.7 1073 520.523M1047.5 497.005V495.005L1039 480.5M1047.5 497.005L995.5 510.505V544.005M1045 544.005V590.235M1045 544.005H1031.5M995.5 544.005H1031.5M995.5 544.005V565.005M1045 590.235L1031.5 590.445M1045 590.235L1073 589.799M1031.5 590.445L995.5 591.005V565.005M1031.5 590.445V565.005M1031.5 544.005V565.005M1031.5 565.005H995.5M268.159 1086.5L331 1119.5L343.5 1098.53M343.5 1098.53L368.5 1056.5L323.5 1032.39M343.5 1098.53L315.5 1084.85M304.131 1022C309.991 1011.47 316.448 999.931 322.079 990.005M304.131 1022L323.5 1032.39M315.5 1084.85L336 1049.5M1073 589.799V520.523M1073 589.799L1104 589.317M1073 520.523C1083.3 520.331 1094.24 520.132 1104 519.96M1104 519.96V589.317M1104 589.317L1134 588.85M335.5 967.005C333.089 970.772 328.049 979.48 322.079 990.005M335.5 967.005L340.5 959.505M335.5 967.005C320.416 961.558 309.245 951.758 301.5 941.96M322.079 990.005L340.5 1001.09M340.5 959.505L322.079 950.005L358.5 907.005L383 919.926M340.5 959.505L380 979.882M403.5 992.005L380 1034.5L345 1016.5L349.5 1006.5L340.5 1001.09M403.5 992.005L431.5 945.505L407.5 932.847M403.5 992.005L380 979.882M323.5 1032.39L340.5 1001.09M380 979.882L407.5 932.847M407.5 932.847L383 919.926M383 919.926L370 945.505M83.5 856.882C92.1688 851.62 99.3038 847.25 102 845.505C98.8 839.905 102.667 835.505 105 834.005C107.833 832.338 114.1 828.605 116.5 827.005C121.7 823.805 125.667 829.005 127 832.005L145.5 821.064M83.5 856.882C70.3058 864.892 53.5583 874.97 43.5 881.005L126.5 1016L167 991.16M83.5 856.882L120.265 916.005M167 991.16L130.215 932.005M145.5 821.064L173.5 804.505L185.81 825.505M145.5 821.064L158.018 841.005M120.265 916.005L182.5 880.005L158.018 841.005M120.265 916.005L130.215 932.005M130.215 932.005L171 907.505M171 907.505L252 858.505M158.018 841.005L185.81 825.505M252 858.505L299.5 830.505L342.5 900.005L301.5 941.96M191.676 760.505C189.236 755.211 188.5 751.54 188.5 750.005L188.246 742.005M191.676 760.505C192.945 763.257 194.674 766.448 197 770.005C199.942 774.505 206.423 784.971 213.802 797.005M191.676 760.505L247.5 744.005L261.866 768.005M213.802 797.005L261.866 768.005M213.802 797.005C218.448 804.583 223.451 812.782 228.149 820.505M261.866 768.005L275.933 791.505M228.149 820.505L275.933 791.505M187.5 718.505L188.246 742.005M187.5 718.505V644.505M187.5 718.505H120.5M188.246 742.005L244 726.005V644.505H187.5M187.5 644.505L120.5 646.505M120.5 646.505H97M120.5 646.505V666.005M120.5 718.505V666.005M97 646.505V666.005M97 646.505L50 649.505M97 666.005H120.5M50 649.505V720.13M50 649.505H0.5M50 720.13L0.5 721.505V649.505M0.5 649.505V631.505M0.5 631.505H71M71 631.505H120.5V583.505M120.5 557.35L151.5 556.505V583.505M120.5 557.35V583.505M120.5 583.505H151.5M242.5 598.005L209 598.954M242.5 598.005V572.505M209 598.954L189.566 599.505M209 598.954V610.505H189.74M189.566 599.505C189.626 603.328 189.685 607.021 189.74 610.505M189.566 599.505C189.428 590.857 189.278 581.548 189.131 572.505M189.131 572.505C188.895 558.065 188.666 544.305 188.5 535.005C188.475 533.632 188.505 532.299 188.583 531.005M189.131 572.505H242.5M242.5 572.505V543.005L188.583 531.005M188.583 531.005C189.076 522.813 191.525 516.179 194.693 511.005M194.693 511.005L246.5 525.505L291 451.505L242.5 425.005M242.5 425.005L162 380.995M77.8789 335.005L119 357.486M77.8789 335.005L99.3114 297.005M119 357.486L129.404 340.005M119 357.486L162 380.995M166 278.513C175.261 283.621 183.056 287.97 186.5 290.005C189.3 284.005 193.667 284.172 195.5 285.005C198.333 286.505 204.7 290.105 207.5 292.505C210.3 294.905 208.667 299.838 207.5 302.005L227.5 312.838M166 278.513C151.599 270.569 133.651 260.787 123 255.005L99.3114 297.005M166 278.513L141.087 320.373M99.3114 297.005L141.087 320.373M141.087 320.373L203 355.005M141.087 320.373L129.404 340.005M203 355.005L227.5 312.838M203 355.005L191.5 375.505L171.5 364.071M227.5 312.838L255.5 328.005L237.5 358.505L230 355.005L211 388.005L254 410.005C262.333 395.172 282.9 358.705 298.5 331.505C314.1 304.305 343.667 306.172 356.5 310.505L357.5 287.505L325 279.005C314.333 260.172 292.5 221.805 290.5 219.005C286.1 222.205 282.333 220.005 281 218.505C280 217.172 277.2 213.105 274 207.505C270.8 201.905 275.333 197.172 278 195.505L245 137.005L387 54.0049C397.333 72.8382 418.6 111.305 421 114.505C425 112.505 427.333 113.338 428 114.005C430 116.838 434.5 123.305 436.5 126.505C438.5 129.705 434.333 134.838 432 137.005L458.5 183.005L428 201.505L424 195.505L392 214.505L415.5 252.005C442.833 234.838 500.3 199.505 511.5 195.505C522.7 191.505 532.5 195.505 536 198.005L546.5 170.005C546.833 148.838 547.5 105.005 547.5 99.0049C543.9 99.0049 541.333 95.3382 540.5 93.5049C540.333 91.1715 540.1 85.3049 540.5 80.5049C540.9 75.7049 546.667 74.5049 549.5 74.5049L552.5 3.00488L711.5 1.50488C710.833 23.6715 709.5 68.9049 709.5 72.5049C714.3 72.9049 715.833 75.6715 716 77.0049V88.5049C716 96.1049 710 98.6715 707 99.0049L706 153.005H670V146.005H636L634.5 191.005C651.667 190.505 691.9 189.605 715.5 190.005C737.637 190.38 742.881 192.445 747.5 195.565C749.036 196.603 750.503 197.757 752.5 199.005C758.9 203.005 762.5 218.005 763.5 225.005C766.667 223.505 775.8 219.305 787 214.505C780.6 196.505 780 186.338 780.5 183.505C783.435 178.481 787.343 171.806 791.5 164.733C797.592 154.366 804.217 143.143 809.091 135.005C812.034 130.09 814.338 126.301 815.5 124.505C811.1 122.505 810.667 118.338 811 116.505C812.167 114.172 815.3 108.505 818.5 104.505C821.7 100.505 826.5 101.505 828.5 102.505L865.5 42.0049L998 122.005C992.261 131.883 983.028 147.721 975.498 160.505C969.689 170.368 964.894 178.414 963.5 180.505C965.9 182.905 966.5 186.838 966.5 188.505C966.167 189.005 964.7 191.505 961.5 197.505C958.3 203.505 952.167 205.005 949.5 205.005L922 251.505L893 233.505L896 227.005L867.5 210.505L845 250.005C851.391 253.687 859.162 258.227 867.5 263.184C874.271 267.21 881.416 271.511 888.5 275.85C900.561 283.238 912.445 290.737 922 297.18C928.159 301.332 933.351 305.045 937 308.006M129.404 340.005L171.5 364.071M171.5 364.071L162 380.995M1162 518.428V585.505M1039 480.5L989.5 495.005L976.5 475.505M1039 480.5L1020.54 449.005M976.5 475.505L1020.54 449.005M976.5 475.505L964 451.505M1020.54 449.005L1006.77 425.505M964 451.505L1006.77 425.505M1083.5 424.005L1102 413.005C1103 415.172 1107.2 418.505 1116 414.505C1124.8 410.505 1124 403.172 1122.5 400.005L1140 389.259M1083.5 424.005L1073 402.005M1083.5 424.005L1071.25 432.005M1073 402.005L1059 410.505M1073 402.005L1066.76 391.005M1045 419.005L1041 413.005L1047.5 407.505L1044 402.005M1045 419.005L1059 440.005L1071.25 432.005M1045 419.005L1059 410.505M1059 410.505L1071.25 432.005M1066.76 391.005L1052 365.005L1059 360.877M1066.76 391.005L1044 402.005M1140 389.259L1179.5 365.005L1168.2 345.005M1140 389.259L1129.08 367.519M1110.5 330.505L1129.08 367.519M1110.5 330.505L1101.5 314.44M1110.5 330.505L1059 360.877M1129.08 367.519L1168.2 345.005M1168.2 345.005L1129.08 275.783M1066.76 252.422L1103.5 230.505L1129.08 275.783M1066.76 252.422L1092.5 298.374M1092.5 298.374L1129.08 275.783M1092.5 298.374L1101.5 314.44M1101.5 314.44L1062.5 338.003M937 308.006L901.5 342.005L942.5 410.505L984.5 385.129M984.5 385.129L1004 373.348M1004 373.348L1035.5 354.316M999.5 290.813L1035.5 354.316M1035.5 354.316L1049 346.159M1062.5 338.003L1049 346.159M1049 346.159L1059 360.877" stroke="white"/>
</svg>
